<?xml version="1.0" encoding="UTF-8" standalone="no"?>
<svg
   viewBox="-12.5 -12.5 125 125"
   version="1.1"
   id="svg7"
   sodipodi:docname="icon-square-maskable.svg"
   inkscape:version="1.4.3 (0d15f75, 2025-12-25)"
   xmlns:inkscape="http://www.inkscape.org/namespaces/inkscape"
   xmlns:sodipodi="http://sodipodi.sourceforge.net/DTD/sodipodi-0.dtd"
   xmlns="http://www.w3.org/2000/svg"
   xmlns:svg="http://www.w3.org/2000/svg">
  <defs
     id="defs7" />
  <sodipodi:namedview
     id="namedview7"
     pagecolor="#ffffff"
     bordercolor="#000000"
     borderopacity="0.25"
     inkscape:showpageshadow="2"
     inkscape:pageopacity="0.0"
     inkscape:pagecheckerboard="0"
     inkscape:deskcolor="#d1d1d1"
     inkscape:zoom="6.184"
     inkscape:cx="62.5"
     inkscape:cy="88.211514"
     inkscape:window-width="1920"
     inkscape:window-height="991"
     inkscape:window-x="-9"
     inkscape:window-y="-9"
     inkscape:window-maximized="1"
     inkscape:current-layer="logo-light" />
  <!-- Canvas Border (Blue) - Área total com bleed -->
  <!-- Bleed Zone (Red) - Área que pode ser cortada -->
  <!-- Safe Zone (Green) - ~50% área útil -->
  <!-- Textos de guia -->
  <!-- Instruções -->
  <g
     id="logo-light"
     transform="matrix(0.01073433,0,0,0.01073433,-1.5247776,-3.4955399)">
    <g
       id="g94"
       style="fill:#ffffff">
      <path
         id="path94"
         style="baseline-shift:baseline;display:inline;overflow:visible;vector-effect:none;fill:#ffffff;stroke:none;stroke-width:1.39407;stroke-linecap:round;stroke-linejoin:round;enable-background:accumulate;stop-color:#000000"
         d="m 4798.0469,2095.6641 c -48.5781,0.032 -97.315,1.3016 -146.1524,3.8086 -38.5038,1.9766 -77.0807,4.7051 -115.7031,8.2421 a 198.59594,198.59594 0 0 0 -47.9102,10.6446 c -815.9445,88.7554 -1552.8239,517.1118 -2028.9257,1176.8554 a 198.59594,198.59594 0 0 0 -18.6328,22.3243 c -58.1078,82.2714 -111.4563,166.9239 -160.0391,253.5351 -36.8995,65.8221 -71.4357,133.4336 -103.3984,202.7149 a 198.59594,198.59594 0 0 0 -12.8321,38.9843 c -44.5404,100.2944 -83.0902,202.5659 -115.6445,306.2891 h 261.9531 c 24.0408,-69.2818 51.0523,-137.7789 81.0352,-205.293 a 181.46541,181.46541 0 0 1 11.7383,-35.625 c 29.2059,-63.3051 60.7557,-125.0899 94.4726,-185.2343 44.392,-79.1402 93.135,-156.4855 146.2305,-231.6602 a 181.46541,181.46541 0 0 1 17.0117,-20.3906 c 435.0341,-602.8351 1108.3631,-994.2522 1853.9258,-1075.3516 a 181.46541,181.46541 0 0 1 43.7695,-9.7266 c 35.2907,-3.2318 70.54,-5.7134 105.7227,-7.5195 44.6247,-2.291 89.1473,-3.4458 133.5351,-3.4765 0.2382,0 0.4649,0.04 0.7031,0.039 0.2369,0 0.4843,-0.039 0.7227,-0.039 20.5118,0 40.4433,3.1004 60.8789,3.5742 82.6434,1.9123 165.192,4.9634 246.5234,14.5117 46.7418,5.4777 92.0447,16.3159 138.1641,24.2383 54.0417,9.292 108.6697,16.1024 161.8164,28.6914 54.2065,12.8316 106.4033,31.2596 159.4531,47.4219 43.4221,13.2304 87.8002,23.6412 130.4102,39.0625 54.3744,19.6827 106.2998,44.7672 159.1211,67.9101 39.2338,17.1808 79.6522,31.6459 117.9883,50.7031 47.904,23.8242 92.9931,52.5803 139.3164,79.2383 40.8451,23.4907 83.0158,44.5344 122.5781,70.1953 39.8073,25.8308 76.5458,56.0387 114.9219,83.9844 42.936,31.2565 87.3066,60.4226 128.3789,94.2969 36.1997,29.8603 68.9011,63.8622 103.5156,95.664 39.6275,36.4062 80.8852,70.8132 118.3594,109.7461 70.1228,72.8308 136.3256,149.8747 198.0664,230.9375 59.9993,78.7754 114.152,162.5789 165.4297,248.6133 6.3248,10.6084 14.182,19.9063 20.3711,30.625 22.0954,38.271 43.1314,76.9554 63.1445,115.9961 16.5025,32.2169 32.3982,64.8802 47.6563,97.9492 a 181.46541,181.46541 0 0 1 13.4961,42.7539 c 28.7783,65.2719 54.7875,131.3852 78.0468,198.1641 h 261.8946 c -31.8268,-100.8987 -69.3243,-200.5502 -112.5,-298.4766 a 198.59594,198.59594 0 0 0 -14.7657,-46.7968 c -16.6984,-36.1909 -34.088,-71.9487 -52.1484,-107.2071 -21.9024,-42.7261 -44.9396,-85.0497 -69.1211,-126.9336 -6.773,-11.7307 -15.3831,-21.9059 -22.3047,-33.5156 -56.1185,-94.1562 -115.3717,-185.8586 -181.0351,-272.0703 -67.569,-88.7154 -140.0155,-173.0479 -216.7579,-252.7539 -41.0119,-42.6081 -86.1824,-80.2549 -129.5507,-120.0977 -37.882,-34.8041 -73.6642,-72.0474 -113.2813,-104.7265 -44.9493,-37.072 -93.4993,-68.957 -140.4883,-103.1641 -41.9989,-30.5838 -82.2163,-63.6445 -125.7812,-91.9141 -43.2972,-28.083 -89.4593,-51.1081 -134.1602,-76.8164 -50.6963,-29.1744 -100.0346,-60.6455 -152.4609,-86.7187 -41.955,-20.8564 -86.1837,-36.7052 -129.1211,-55.5078 -57.8075,-25.3275 -114.6332,-52.7758 -174.1406,-74.3164 -46.6325,-16.8771 -95.1936,-28.2747 -142.7149,-42.7539 -58.0578,-17.6879 -115.1879,-37.8516 -174.5117,-51.8946 -58.1639,-13.7774 -117.9465,-21.2173 -177.0898,-31.3867 -50.4732,-8.6703 -100.0569,-20.5483 -151.211,-26.5429 -89.0093,-10.4496 -179.3597,-13.7862 -269.8047,-15.879 -22.3647,-0.5185 -44.1729,-3.9257 -66.6211,-3.9257 -0.261,0 -0.5221,0.039 -0.7812,0.039 -0.2608,0 -0.501,-0.039 -0.7617,-0.039 z M 2050.0195,5848.125 c 31.8387,101.0982 69.4049,200.9519 112.6953,299.082 a 198.59594,198.59594 0 0 0 14.5704,46.1914 c 21.2959,46.1604 43.7591,91.6118 67.2656,136.25 17.337,32.8956 35.3248,65.5236 54.0234,97.9102 55.3178,95.8165 115.6782,187.6013 180.5274,275.1562 68.7579,92.7937 142.9647,180.652 221.6406,263.8672 29.2243,30.9209 61.8009,57.8599 92.2656,87.3633 51.6379,50.0073 102.4472,100.8358 157.5195,146.7383 37.071,30.8968 77.0764,57.5433 115.5665,86.4844 52.5007,39.491 104.1483,79.9933 159.1796,115.8008 41.5169,27.0028 85.3329,49.7723 128.1446,74.5898 55.6224,32.2617 110.5903,65.3913 168.3008,93.9062 44.7345,22.0941 91.211,40.0823 137.0507,59.8438 58.7489,25.3394 117.0436,51.2767 177.5196,72.7148 47.9473,16.9959 97.1632,29.9283 146.0351,44.3946 60.5004,17.909 120.6546,36.257 182.5,50.2148 51.5665,11.6473 103.9916,19.323 156.3086,28.1445 60.9235,10.2639 121.5467,20.8484 183.4375,27.2071 54.5369,5.6137 109.5866,7.2671 164.668,9.7656 43.594,1.9784 86.4193,7.7734 130.3515,7.7734 35.8306,0 71.5391,-0.6741 107.1485,-1.9922 51.9608,-1.9372 104.0827,-5.2785 156.2695,-10.0585 a 198.59594,198.59594 0 0 0 47.3828,-10.5079 c 812.5072,-88.2173 1545.1217,-514.471 2021.5235,-1169.375 a 198.59594,198.59594 0 0 0 26.582,-29.9414 c 45.8303,-64.8919 88.6827,-131.2446 128.5937,-198.8867 48.8781,-82.898 93.9293,-168.768 134.8047,-257.3633 a 198.59594,198.59594 0 0 0 10.4883,-29.1406 c 46.3694,-103.4342 86.3142,-209.0057 119.8438,-316.1328 h -261.9727 c -25.0573,72.3683 -53.3718,143.876 -84.9414,214.2969 a 181.46541,181.46541 0 0 1 -9.5898,26.6211 c -37.3495,80.9532 -78.4824,159.4087 -123.1446,235.1562 -36.4684,61.8073 -75.6422,122.444 -117.5195,181.7383 a 181.46541,181.46541 0 0 1 -24.2969,27.3437 c -435.3083,598.4131 -1104.7266,987.9274 -1847.1484,1068.5352 a 181.46541,181.46541 0 0 1 -43.2813,9.5898 c -47.6852,4.3677 -95.3142,7.4098 -142.7929,9.1797 -32.5377,1.2045 -65.1702,1.8164 -97.9102,1.8164 -40.1428,0 -79.2875,-5.2821 -119.1211,-7.0898 -50.3301,-2.2829 -100.6166,-3.7964 -150.4492,-8.9258 -56.5522,-5.8101 -111.9489,-15.4847 -167.6172,-24.8633 -47.8043,-8.0605 -95.694,-15.0799 -142.8125,-25.7226 -56.5106,-12.7536 -111.4954,-29.4952 -166.7773,-45.8594 -44.6563,-13.2184 -89.6261,-25.0561 -133.4375,-40.5859 -55.2594,-19.5888 -108.5257,-43.2917 -162.2071,-66.4453 -41.8856,-18.0571 -84.3587,-34.4992 -125.2343,-54.6875 -52.7325,-26.0552 -102.945,-56.3219 -153.7696,-85.8008 -39.1188,-22.6768 -79.1541,-43.4906 -117.0898,-68.1641 -50.2844,-32.7189 -97.4968,-69.7163 -145.4688,-105.8008 -35.1702,-26.4447 -71.7126,-50.7722 -105.5859,-79.0039 -50.3218,-41.9429 -96.7617,-88.3884 -143.9453,-134.082 -27.837,-26.9584 -57.5934,-51.59 -84.2969,-79.8438 -71.8893,-76.0373 -139.7121,-156.3041 -202.5391,-241.0937 -59.2552,-80.0025 -114.3954,-163.8743 -164.9414,-251.4258 -17.0857,-29.5929 -33.5139,-59.4143 -49.3554,-89.4726 -21.479,-40.7877 -41.9863,-82.3135 -61.4453,-124.4922 a 181.46541,181.46541 0 0 1 -13.3204,-42.2071 c -28.8752,-65.4541 -54.9643,-131.7501 -78.2617,-198.7109 z" />
      <g
         id="g75"
         transform="matrix(1.5447381,0,0,1.5447381,25529.327,-1649.6179)"
         style="fill:#ffffff">
        <path
           id="path73"
           style="fill:#ffffff;fill-opacity:1;fill-rule:evenodd;stroke:#ffffff;stroke-width:26.7442;stroke-dasharray:none;stroke-opacity:1"
           d="m -12677.235,3932.8812 c -49.477,-26.7442 -73.547,-97.6163 -49.477,-143.0812 4.68,-10.0291 18.721,-27.4128 30.087,-38.1105 19.39,-18.7209 24.739,-20.0582 70.872,-20.0582 45.465,0 50.815,1.3373 70.204,20.0582 11.366,10.6977 25.407,28.0814 30.087,38.1105 19.39,35.4358 7.355,99.6219 -23.401,123.6916 -22.064,18.0523 -61.511,35.436 -80.233,35.436 -11.366,0 -32.761,-7.3546 -48.139,-16.0464 m -2747.964,6.686 c -77.558,-31.4244 -95.611,-127.0349 -36.105,-184.5347 20.727,-20.0581 28.75,-23.4012 65.523,-25.407 35.436,-2.6744 45.466,-0.6685 64.855,12.7035 33.43,23.4012 48.808,47.471 51.483,83.5754 4.011,40.1163 -10.698,70.8721 -46.134,96.9477 -29.419,22.064 -70.204,29.4186 -99.622,16.7151 m 3058.865,655.901 c 1.337,-4.6803 15.378,-10.0291 31.425,-11.3663 l 30.087,-3.3431 1.336,-272.7905 2.007,-272.1221 -15.378,-3.3429 c -8.024,-2.0059 -22.733,-4.0117 -31.424,-5.349 -9.361,-0.6685 -16.716,-4.6802 -16.716,-8.0231 0,-4.6803 46.802,-8.0233 125.029,-8.6919 l 125.698,-2.0059 v 26.7442 c 0,32.7617 10.029,34.7674 43.459,10.0291 50.814,-38.779 125.698,-54.8256 205.93,-43.4592 58.837,8.0231 95.61,24.0697 125.698,56.8313 l 22.064,22.064 27.413,-22.7326 c 15.377,-12.7035 47.47,-30.7559 70.872,-40.1163 35.436,-15.3779 52.819,-18.0523 106.308,-18.7209 75.553,0 119.012,12.7035 159.128,47.4709 63.517,54.1569 74.215,103.6337 74.215,348.3429 l 0.669,189.2151 h 30.087 c 22.063,0 30.087,2.0058 30.087,10.029 0,8.0233 -22.064,10.0291 -157.122,10.0291 -135.727,0 -157.122,-2.0058 -157.122,-10.0291 0,-8.0232 7.355,-10.029 30.087,-10.029 h 30.088 V 4364.131 c 0,-236.0173 -4.012,-264.7673 -36.106,-293.5174 -16.714,-15.3778 -52.15,-28.0813 -78.226,-28.0813 -27.412,0 -73.547,22.0639 -95.611,45.465 -18.052,18.721 -19.389,22.7327 -14.709,54.1571 2.005,18.7209 4.012,117.0058 4.012,218.6336 0,101.6278 2.006,193.2266 4.011,203.9244 4.012,17.3837 6.686,19.3895 33.431,19.3895 21.395,0 29.418,2.0058 29.418,10.029 0,8.0233 -22.732,10.0291 -163.808,10.0291 -141.744,0 -163.808,-2.0058 -163.808,-10.0291 0,-8.0232 8.024,-10.029 36.773,-10.029 h 37.442 l -2.006,-229.3313 c -2.006,-222.6453 -2.674,-230 -17.383,-257.4127 -40.117,-74.2151 -154.448,-69.5349 -202.587,9.3604 -12.704,20.0581 -13.373,32.7616 -11.367,247.3836 l 2.006,226.6569 31.424,2.0059 c 22.064,1.3372 32.093,4.6802 32.093,11.3662 0,8.0233 -25.406,10.0291 -160.465,10.0291 -125.697,0 -160.465,-2.0058 -158.459,-8.6918 m -413.866,1.3372 c -4.681,-8.0233 5.349,-12.035 37.442,-14.7093 l 23.401,-1.3373 1.337,-270.7848 c 2.006,-291.5115 3.343,-280.8138 -34.098,-280.8138 -12.036,0 -18.054,-3.343 -16.047,-8.6918 2.006,-6.0175 33.43,-8.6919 121.017,-10.0291 l 118.343,-2.0059 v 276.8023 c 0,152.4418 1.337,282.151 4.012,288.1685 2.674,7.3546 12.703,10.6977 33.43,10.6977 21.395,0 29.419,2.0058 29.419,10.029 0,8.0233 -22.065,10.0291 -157.123,10.0291 -98.953,0 -159.128,-2.6744 -161.133,-7.3546 m -624.477,-2.6745 c 0,-8.0232 7.355,-10.029 30.087,-10.029 h 30.088 l -2.007,-276.1336 -1.336,-275.465 -28.75,-2.6745 c -19.39,-1.3372 -28.082,-4.6802 -28.082,-11.3663 0,-8.0232 20.727,-9.3605 126.367,-9.3605 h 127.035 l 2.005,64.8547 2.006,65.5232 18.052,-37.4418 c 36.105,-74.2151 80.233,-102.9651 159.128,-102.9651 60.843,0 87.588,12.7035 106.308,49.4767 17.384,33.4302 17.384,54.157 0.669,86.9186 -18.721,36.7733 -62.849,57.4999 -100.291,47.4709 -29.419,-8.0233 -54.157,-35.436 -66.86,-74.8837 -8.692,-28.75 -29.418,-48.8081 -43.459,-43.4593 -16.047,6.0174 -35.436,42.1221 -54.826,101.6279 -17.384,51.4825 -18.052,59.5058 -20.727,235.3487 l -2.675,182.5291 h 30.756 c 22.733,0 30.756,2.0058 30.756,10.029 0,8.0233 -22.063,10.0291 -157.122,10.0291 -135.726,0 -157.122,-2.0058 -157.122,-10.0291 m -735.465,0 c 0,-6.686 9.361,-10.029 31.425,-11.3662 l 32.093,-2.0059 v -337.6452 -337.6452 l -32.093,-2.6744 c -22.064,-1.3372 -31.425,-4.6803 -31.425,-11.3663 0,-14.7093 359.041,-14.0407 427.239,0 108.313,22.7325 173.168,74.8836 196.569,158.4593 32.093,112.3254 -9.36,211.9475 -110.32,262.0929 -50.145,24.7383 -84.244,31.4244 -175.843,36.7732 l -80.232,4.6802 v 113.6628 113.6627 l 29.419,3.3431 c 16.047,1.3372 30.087,6.686 31.424,11.3663 2.006,6.686 -32.761,8.6918 -157.791,8.6918 -135.726,0 -160.465,-2.0058 -160.465,-10.0291 m 256.745,-272.7906 c -1.338,-4.6802 -2.675,-100.2906 -1.338,-212.6162 l 2.006,-203.2557 39.448,2.0058 c 100.959,5.3488 144.419,68.1977 144.419,209.9418 0,112.3255 -21.396,165.1453 -76.89,191.2209 -36.773,17.3837 -102.297,24.7383 -107.645,12.7034 m -1658.139,275.4651 c -4.681,-8.0233 5.348,-12.035 37.441,-14.7093 l 23.402,-1.3373 1.337,-270.7848 c 2.006,-290.8428 3.343,-280.8138 -33.43,-280.8138 -12.036,0 -18.053,-4.0116 -18.053,-10.029 0,-8.6919 17.384,-10.0292 120.349,-10.0292 h 120.349 v 276.8023 c 0,151.7732 1.337,281.4824 4.012,287.4999 2.674,7.3546 12.702,10.6977 33.429,10.6977 21.396,0 29.42,2.0058 29.42,10.029 0,8.0233 -22.065,10.0291 -157.123,10.0291 -98.953,0 -159.128,-2.6744 -161.133,-7.3546 m 4665.521,14.0406 c -95.61,-16.0464 -179.855,-66.1918 -215.291,-129.0406 -54.825,-96.279 -54.156,-259.4185 2.675,-355.6976 50.145,-86.25 173.169,-138.4011 293.517,-123.0232 132.385,16.0466 219.303,109.6511 238.024,258.0813 4.68,34.7675 6.685,66.8604 4.68,72.2093 -3.343,8.0233 -33.431,10.0291 -194.564,10.0291 -104.303,0 -191.221,2.0058 -193.227,4.6802 -5.348,9.3605 9.361,95.6104 22.064,123.6918 38.779,92.2675 130.378,127.0349 236.018,90.9302 42.122,-14.7093 86.919,-39.4477 94.942,-52.1511 5.349,-8.6919 17.383,-9.3605 17.383,-1.3372 0,8.6918 -34.767,44.1279 -56.163,57.4999 -63.517,38.7791 -169.157,57.5 -250.058,44.1279 m -65.523,-294.1859 c -6.686,-12.0349 4.68,-121.686 18.053,-180.5232 19.389,-85.5813 41.453,-113.6628 87.587,-113.6628 46.134,0 71.54,36.7733 92.267,135.0581 6.686,34.0989 12.703,84.9128 12.703,113.6628 l 0.67,52.1511 h -103.635 c -61.511,0 -105.639,-3.3429 -107.645,-6.686 m -4059.766,294.8545 c -36.773,-6.686 -80.232,-27.4127 -96.948,-45.465 -16.047,-18.0524 -31.424,-58.8372 -31.424,-82.2384 0,-32.7616 19.39,-82.2384 42.122,-106.3081 40.116,-42.1221 106.308,-67.5291 218.634,-84.2442 42.122,-6.686 80.901,-14.0407 86.918,-16.715 8.024,-4.6802 9.361,-20.0582 8.024,-88.2559 -3.343,-135.7267 -20.059,-165.8139 -93.605,-165.8139 -64.855,0 -79.564,20.0582 -58.169,80.2326 28.082,79.5639 -8.023,146.4243 -78.896,146.4243 -72.877,0.6687 -116.336,-68.8662 -85.581,-135.0581 20.727,-44.1279 54.826,-71.5406 117.675,-95.6104 27.412,-10.6976 50.814,-12.7035 133.72,-12.7035 112.326,-0.6686 148.431,8.0233 192.559,43.4593 54.157,44.7966 64.186,92.2675 64.186,304.215 0.668,201.2499 4.011,216.6279 52.151,216.6279 30.755,0.6686 26.744,10.6976 -10.029,24.7384 -47.471,18.7209 -142.412,16.715 -180.523,-2.6745 -15.379,-8.6918 -31.425,-21.3953 -35.436,-28.75 -8.023,-16.0464 -21.395,-16.715 -33.431,-2.6744 -15.377,18.7209 -60.843,37.4418 -110.988,47.471 -57.5,10.6976 -59.506,10.6976 -100.959,3.3429 m 121.018,-54.1569 c -70.872,-25.407 -95.611,-128.372 -48.14,-195.9011 20.058,-28.0814 73.546,-52.1512 118.342,-54.1569 l 38.111,-0.6686 2.006,102.2964 c 2.005,114.9999 -1.338,128.372 -42.79,145.0871 -26.745,11.3664 -43.46,12.035 -67.529,3.3431 m -1103.867,60.1744 c -158.459,-24.7384 -254.069,-105.6395 -290.174,-243.372 -15.378,-60.843 -16.715,-195.9011 -2.006,-257.4127 22.733,-96.279 76.221,-167.8198 157.122,-208.6046 115.669,-58.8372 237.355,-59.5058 355.03,-2.0058 25.406,12.0348 50.813,22.7325 56.162,22.7325 18.721,0 34.767,-12.7034 39.448,-30.0872 2.005,-9.3604 8.691,-16.7151 14.041,-16.7151 8.023,0 10.028,20.7268 10.028,140.4069 0,112.3256 -2.005,140.407 -9.36,140.407 -6.018,0 -12.035,-16.7151 -17.384,-47.4709 -14.709,-82.9069 -64.854,-162.4709 -123.692,-197.2384 -40.116,-23.4011 -66.192,-30.0871 -118.343,-30.7558 -34.767,-0.6686 -50.145,2.6745 -68.197,13.3721 -51.482,32.0931 -79.564,90.9302 -94.942,197.2384 -12.035,88.2557 -12.035,191.8895 0.669,288.1685 13.371,103.6337 40.784,161.8022 90.261,193.2266 44.128,28.0815 143.75,26.7442 201.25,-2.6744 56.831,-29.4185 113.663,-107.6453 124.36,-171.1627 3.343,-20.7268 17.384,-36.1046 24.739,-28.0814 4.68,4.0117 -15.378,71.5407 -30.756,105.6395 -20.726,44.7965 -81.57,102.2965 -127.704,119.6802 -45.465,16.7151 -134.389,24.0698 -190.552,14.7093" />
      </g>
      <path
         id="text93"
         style="font-size:720.388px;font-family:Candara;-inkscape-font-specification:Candara;fill:#ffffff;stroke-width:240.129;stroke-linecap:square"
         d="m 4345.1848,6252.2182 -4.5728,52.411 c -28.8437,8.6766 -60.2668,13.0149 -94.2695,13.0149 -80.6685,0 -141.2871,-22.0431 -181.8558,-66.1294 -40.5687,-44.3207 -60.8531,-98.3733 -60.8531,-162.1576 0,-66.8329 22.6294,-124.403 67.8882,-172.7103 45.2587,-48.5417 106.1118,-72.8126 182.5592,-72.8126 21.1051,0 43.3828,3.1658 66.8329,9.4973 l -9.8491,55.9286 c -26.9676,-8.4421 -51.004,-12.6631 -72.1091,-12.6631 -56.7493,0 -99.7803,17.5876 -129.093,52.7628 -29.3127,35.1752 -43.969,78.2062 -43.969,129.0929 0,51.8248 16.8841,96.2628 50.6523,133.314 33.7682,37.0512 80.434,55.5768 139.9973,55.5768 22.7466,0 52.2938,-5.0418 88.6415,-15.1253 z m 486.7318,55.9286 h -74.2196 c 0,-15.7116 -14.7736,-65.0741 -44.3208,-148.0876 h -202.9609 c -29.0782,81.8409 -43.6172,131.2035 -43.6172,148.0876 h -71.0539 c 0,-8.6766 30.2506,-83.5998 90.752,-224.7695 60.5013,-141.4043 90.752,-219.1415 90.752,-233.2116 h 81.6065 c 0,13.8356 28.8436,90.4003 86.5309,229.6941 57.6873,139.2937 86.531,215.3894 86.531,228.287 z m -134.721,-194.1671 c -55.1078,-137.6523 -82.6617,-210.8167 -82.6617,-219.4932 h -3.8693 c 0,7.2695 -28.4919,80.4339 -85.4757,219.4932 z m 543.7346,194.1671 h -67.8881 c -22.5121,-67.3019 -38.9272,-111.8571 -49.2453,-133.6658 -13.1321,-27.4367 -28.0229,-45.1415 -44.6725,-53.1145 -13.1321,-6.3315 -36.6994,-9.4973 -70.7021,-9.4973 -19.9326,0 -37.6375,0.2345 -53.1146,0.7035 0,75.7439 1.407,140.9353 4.2211,195.5741 h -65.4259 c 3.5175,-72.6954 5.2763,-152.8949 5.2763,-240.5984 0,-82.5445 -1.7588,-155.0054 -5.2763,-217.3827 h 49.597 c 10.5526,0 23.9192,-0.3517 40.0998,-1.0552 16.1805,-0.7035 34.7061,-1.0553 55.5768,-1.0553 102.7115,0 154.0673,35.4097 154.0673,106.2291 0,58.8598 -28.8437,100.2493 -86.531,124.1684 v 3.5176 c 25.7952,7.7385 46.6658,25.6779 62.6119,53.818 13.3665,23.4501 37.1684,80.903 71.4056,172.3585 z m -107.6361,-329.9434 c 4.5427,-56.0636 40.8444,-88.0835 -113.2641,-83.7169 -26.9568,0.7638 -49.597,1.5242 -67.8881,4.5727 1.6415,40.8033 2.4622,96.2628 2.4622,166.3787 14.0701,0.469 27.554,0.7035 40.4515,0.7035 92.159,0 133.5038,-29.5042 138.2385,-87.938 z m 463.0724,276.8288 -2.1106,53.1146 h -283.512 c 3.283,-72.6954 4.9245,-152.8949 4.9245,-240.5984 0,-82.5445 -1.6415,-155.0054 -4.9245,-217.3827 h 265.9244 l -2.814,52.4111 c -64.4879,-2.8141 -132.845,-4.2211 -205.0714,-4.2211 1.4071,36.3477 2.1106,85.4758 2.1106,147.3841 62.3773,0 117.9541,-1.407 166.7304,-4.221 v 52.411 c -52.0593,-2.1105 -107.6361,-3.1657 -166.7304,-3.1657 0,60.2668 1.0552,116.7816 3.1657,169.5444 77.8545,0 151.9569,-1.7588 222.3073,-5.2763 z"
         sodipodi:nodetypes="ccscscsccsssssccccccccccsccccccccccscccscssssccccssccsscccscccccccccc" />
    </g>
  </g>
</svg>
