<?xml version="1.0" encoding="UTF-8" standalone="no"?>
<svg
   viewBox="0 0 100 100"
   version="1.1"
   id="svg4"
   sodipodi:docname="icon.svg"
   inkscape:version="1.4.3 (0d15f75, 2025-12-25)"
   xmlns:inkscape="http://www.inkscape.org/namespaces/inkscape"
   xmlns:sodipodi="http://sodipodi.sourceforge.net/DTD/sodipodi-0.dtd"
   xmlns="http://www.w3.org/2000/svg"
   xmlns:svg="http://www.w3.org/2000/svg">
  <defs
     id="defs4" />
  <sodipodi:namedview
     id="namedview4"
     pagecolor="#ffffff"
     bordercolor="#000000"
     borderopacity="0.25"
     inkscape:showpageshadow="2"
     inkscape:pageopacity="0.0"
     inkscape:pagecheckerboard="0"
     inkscape:deskcolor="#d1d1d1"
     inkscape:zoom="0.96625"
     inkscape:cx="54.851229"
     inkscape:cy="-6.7270375"
     inkscape:window-width="1920"
     inkscape:window-height="991"
     inkscape:window-x="-9"
     inkscape:window-y="-9"
     inkscape:window-maximized="1"
     inkscape:current-layer="svg4" />
  <!-- Canvas = Safe Zone - SEM MARGEM -->
  <!-- Textos de guia -->
  <!-- Instruções -->
  <g
     id="g4"
     transform="matrix(0.22958706,0,0,0.22958706,96.60566,39.275235)">
    <path
       id="path111"
       style="baseline-shift:baseline;display:inline;overflow:visible;vector-effect:none;fill:#7566a0;stroke-width:0.1;stroke-linecap:round;stroke-linejoin:round;enable-background:accumulate;stop-color:#000000;fill-opacity:1"
       d="m -203.15274,-171.41268 c -3.66688,0.002 -7.34471,0.096 -11.03125,0.28516 -2.91047,0.14933 -5.82671,0.35763 -8.74609,0.625 a 15,15 0 0 0 -3.61914,0.80469 c -61.63146,6.70395 -117.29217,39.05782 -153.25195,88.892572 a 15,15 0 0 0 -1.40039,1.68165 c -4.40416,6.23556 -8.44715,12.65126 -12.12696,19.21679 -2.77255,4.95005 -5.36629,10.03329 -7.76953,15.24219 a 15,15 0 0 0 -0.97461,2.95508 c -24.81183,55.87769 -25.03169,119.85969 -0.12695,176.312498 a 15,15 0 0 0 1.10156,3.48828 c 1.6253,3.52286 3.33899,6.98907 5.13477,10.39453 1.29221,2.44895 2.63309,4.87947 4.02539,7.29102 4.15099,7.18973 8.67364,14.08033 13.53515,20.65429 5.19356,7.01997 10.8056,13.66558 16.75,19.96094 2.20315,2.33393 4.65851,4.36463 6.95508,6.5918 3.90149,3.78332 7.74094,7.63072 11.90234,11.10351 2.80708,2.34234 5.83513,4.36091 8.75,6.55469 3.96391,2.98445 7.86245,6.04759 12.01758,8.75391 3.12625,2.03529 6.42674,3.75185 9.65039,5.62304 4.21429,2.44781 8.38055,4.95822 12.75391,7.1211 3.37974,1.67067 6.89213,3.02905 10.35547,4.52344 4.43392,1.91422 8.83205,3.87611 13.39648,5.49609 3.63428,1.28978 7.36378,2.27374 11.06836,3.37109 4.56721,1.3529 9.10857,2.74018 13.77735,3.79492 3.89268,0.88012 7.84946,1.4581 11.79882,2.125 4.61007,0.7778 9.19935,1.57687 13.88282,2.0586 4.12093,0.42471 8.27739,0.55298 12.43945,0.74219 3.29973,0.15006 6.5439,0.58788 9.86914,0.58789 2.69667,0 5.38626,-0.0496 8.06641,-0.14844 3.934,-0.14614 7.8788,-0.3998 11.83008,-0.76172 a 15,15 0 0 0 3.55859,-0.78516 c 61.34781,-6.65469 116.652263,-38.84084 152.640623,-88.27148 a 15,15 0 0 0 2.07227,-2.32227 c 3.32009,-4.70082 6.43513,-9.50405 9.34375,-14.39648 3.83514,-6.45499 7.3604797,-13.14748 10.5507797,-20.0625 a 15,15 0 0 0 0.75781,-2.05859 C 20.963543,79.968542 21.153423,15.581902 -3.8636673,-41.147048 a 15,15 0 0 0 -1.10938,-3.51758 c -1.18463,-2.56763 -2.41575,-5.10577 -3.69141,-7.61133 -1.7280497,-3.3919 -3.5508097,-6.75031 -5.4687497,-10.07226 -0.52403,-0.90766 -1.19269,-1.69176 -1.72851,-2.58985 -4.33816,-7.2731 -8.92406,-14.35346 -14.01563,-20.99804 -5.10941,-6.66788 -10.58357,-13.00452 -16.38086,-18.994152 -2.98305,-3.08288 -6.27103,-5.79745 -9.41796,-8.6875 -2.96604,-2.72393 -5.7802,-5.62436 -8.88672,-8.17578 -3.41833,-2.80712 -7.10588,-5.2262 -10.67969,-7.81445 -3.14014,-2.27511 -6.14488,-4.73956 -9.40039,-6.84375 -3.32105,-2.14557 -6.86127,-3.90638 -10.29102,-5.86719 -3.75886,-2.15026 -7.412923,-4.47732 -11.296873,-6.40234 -3.24426,-1.60719 -6.66278,-2.83066 -9.98438,-4.27539 -4.27844,-1.86181 -8.47782,-3.88701 -12.8789,-5.47461 -3.35972,-1.21181 -6.86035,-2.02512 -10.28125,-3.07227 -4.52758,-1.38584 -8.99122,-2.94308 -13.6211,-4.03515 -4.24336,-1.00163 -8.60761,-1.53764 -12.91992,-2.28516 -3.93348,-0.68114 -7.80079,-1.59857 -11.78906,-2.06445 -6.71397,-0.78574 -13.52572,-1.03515 -20.34766,-1.19141 -1.67218,-0.0384 -3.30399,-0.29102 -4.98242,-0.29101 -0.0196,0 -0.039,0.002 -0.0586,0.002 -0.0197,10e-6 -0.0389,-0.004 -0.0586,-0.004 z m -9.30468,30.23633 c 5.92273,-0.29848 11.76118,0.0812 17.61523,0.33594 4.47615,0.19582 8.9436,0.42169 13.35352,0.92969 4.19969,0.48435 8.33949,1.2167 12.47461,1.97851 4.30331,0.7924 8.59455,1.61761 12.80664,2.70117 4.10679,1.05736 8.13054,2.35142 12.14453,3.67969 4.05975,1.34338 8.10347,2.71887 12.04883,4.33008 3.93448,1.60703 7.76072,3.44068 11.57421,5.30859 3.80482,1.86424 7.59183,3.75707 11.25782,5.8711 3.68022,2.12217 7.22936,4.46077 10.761713,6.83008 3.51148,2.35592 7.00203,4.73688 10.34961,7.32617 3.38625,2.619482 6.6122,5.448012 9.82227,8.302732 3.14598,2.79769 6.27095,5.61515 9.23047,8.62695 3.06013,3.11543 5.93115,6.4334 8.7832,9.77539 2.71707,3.18325 5.42049,6.37573 7.93164,9.75196 2.66056,3.57809 5.09626,7.35679 7.51758,11.15039 3.10482,4.86701 6.31867,9.65212 8.99219,14.8457 1.30204,2.526 2.54288,5.07209 3.72265,7.63867 22.9795097,49.9916 22.7858597,107.29407 0.10547,156.804688 -2.58625,5.64571 -5.46675,11.19065 -8.63672,16.61133 -2.82717,4.84301 -5.85352,9.53276 -9.06836,14.06055 -31.53109,44.40856 -81.058883,73.24088 -135.845703,78.34375 -3.18505,0.29665 -6.38737,0.51182 -9.60547,0.64648 -5.62651,0.23848 -11.16782,-0.18276 -16.73047,-0.44336 -4.44609,-0.20927 -8.89334,-0.40067 -13.27343,-0.91797 -4.17338,-0.49344 -8.27573,-1.27937 -12.38477,-2.04687 -4.27192,-0.79756 -8.54509,-1.58335 -12.72656,-2.66797 -4.07894,-1.05884 -8.05995,-2.39446 -12.04688,-3.7207 -4.03374,-1.34182 -8.06982,-2.67291 -11.99023,-4.2793 -3.91419,-1.60405 -7.70196,-3.47353 -11.49609,-5.33594 -3.76761,-1.84999 -7.53867,-3.68813 -11.16993,-5.7832 -3.66501,-2.1144 -7.177,-4.4803 -10.69531,-6.83985 -3.48773,-2.3397 -6.97857,-4.67029 -10.30469,-7.24023 -3.36105,-2.59716 -6.54074,-5.43291 -9.72851,-8.26172 -3.13182,-2.77916 -6.27117,-5.54599 -9.21875,-8.53711 -3.04929,-3.09547 -5.88301,-6.42219 -8.72656,-9.74219 -2.70379,-3.15626 -5.42281,-6.29378 -7.92383,-9.64062 -2.64936,-3.5463 -5.04701,-7.3171 -7.46094,-11.07617 -2.98695,-4.65369 -6.10683,-9.20575 -8.69922,-14.16016 -1.51976,-2.90068 -2.95675,-5.82834 -4.31445,-8.7832 -22.97291,-49.997438 -22.76881,-107.304428 -0.0762,-156.814458 2.3184,-5.05821 4.87109,-10.03471 7.6582,-14.91406 3.10482,-5.44524 6.46294,-10.70224 10.05273,-15.75586 31.53912,-44.399992 81.06954,-73.220002 135.85743,-78.312502 2.67528,-0.24866 5.36363,-0.44161 8.0625,-0.57617 z" />
    <path
       id="path112"
       style="fill:#7566a0;fill-opacity:1;stroke:none;stroke-width:4.7819;stroke-linecap:square;stroke-linejoin:miter;stroke-dasharray:none;stroke-opacity:1"
       d="m -272.76257,-51.333988 c -35.36859,1.95518 -69.32817,23.1561 -69.32817,76.11341 -0.79907,78.820808 88.85658,137.922128 139.09297,151.382918 50.23639,-13.46079 139.892043,-72.56211 139.092973,-151.382918 0,-94.14633 -107.333723,-87.93054 -139.092973,-51.63188 -13.89467,-15.88066 -42.25589,-26.00223 -69.7648,-24.48153 z"
       sodipodi:nodetypes="sccccs" />
  </g>
</svg>
