<?xml version="1.0" encoding="UTF-8" standalone="no"?>
<svg
   viewBox="0 0 390 844"
   version="1.1"
   id="svg8"
   sodipodi:docname="creative-portrait.svg"
   inkscape:version="1.4.3 (0d15f75, 2025-12-25)"
   xmlns:inkscape="http://www.inkscape.org/namespaces/inkscape"
   xmlns:sodipodi="http://sodipodi.sourceforge.net/DTD/sodipodi-0.dtd"
   xmlns="http://www.w3.org/2000/svg"
   xmlns:svg="http://www.w3.org/2000/svg">
  <defs
     id="defs8">
    <linearGradient
       id="bg-4"
       x1="0"
       y1="0"
       x2="282.84271"
       y2="282.84271"
       gradientTransform="matrix(1.3788583,0,0,2.9839904,-628.27995,15.401783)"
       gradientUnits="userSpaceOnUse">
      <stop
         offset="0%"
         style="stop-color:#667EEA;stop-opacity:1"
         id="stop1-8" />
      <stop
         offset="100%"
         style="stop-color:#764BA2;stop-opacity:1"
         id="stop2-8" />
    </linearGradient>
  </defs>
  <sodipodi:namedview
     id="namedview8"
     pagecolor="#ffffff"
     bordercolor="#000000"
     borderopacity="0.25"
     inkscape:showpageshadow="2"
     inkscape:pageopacity="0.0"
     inkscape:pagecheckerboard="0"
     inkscape:deskcolor="#d1d1d1"
     inkscape:zoom="0.66605437"
     inkscape:cx="104.34584"
     inkscape:cy="379.09818"
     inkscape:window-width="1920"
     inkscape:window-height="991"
     inkscape:window-x="-9"
     inkscape:window-y="-9"
     inkscape:window-maximized="1"
     inkscape:current-layer="svg8" />
  <!-- Canvas Border (Blue) - Área total -->
  <!-- Safe Zone (Green) - ~92%/91% área útil -->
  <!-- Textos de guia -->
  <!-- Instruções -->
  <g
     id="g9"
     transform="translate(628.27991,-15.401807)">
    <rect
       width="390"
       height="844"
       fill="url(#bg)"
       id="rect2-2"
       x="-628.27991"
       y="15.401807"
       style="fill:url(#bg-4);stroke-width:2.02842" />
    <path
       id="circle2-5"
       style="opacity:0.1;fill:#ffffff;stroke-width:2.89513"
       d="m -525.99115,105.93167 c -24.5055,0.93082 -50.9135,18.15059 -50.9135,54.25539 0,47.96809 52.2348,71.40945 86.8539,106.02849 34.619,-34.61904 86.8538,-58.0604 86.8538,-106.02849 0,-57.76769 -67.6041,-67.195327 -86.8538,-38.89764 -7.2187,-10.61161 -21.237,-15.91625 -35.9404,-15.35775 z" />
    <path
       id="circle2-8-4"
       style="opacity:0.1;fill:#ffffff;stroke-width:3.86017"
       d="m -507.97307,518.76939 c -32.6741,1.24107 -67.8848,24.20079 -67.8848,72.34053 0,63.95742 69.6465,95.21258 115.8052,141.37128 46.1587,-46.1587 115.8052,-77.41386 115.8052,-141.37128 0,-77.02366 -90.1388,-89.59385 -115.8052,-51.86351 -9.6249,-14.14887 -28.316,-21.22171 -47.9204,-20.47702 z" />
    <path
       id="circle2-8"
       style="opacity:0.1;fill:#ffffff;stroke-width:1.93009"
       d="m -347.03754,355.26111 c -16.337,0.62057 -33.9424,12.10039 -33.9424,36.17028 0,31.97869 34.8233,47.60629 57.9026,70.68564 23.0794,-23.07935 57.9026,-38.70695 57.9026,-70.68564 0,-38.51179 -45.0694,-44.79689 -57.9026,-25.93177 -4.8124,-7.0744 -14.158,-10.61082 -23.9602,-10.23851 z" />
    <g
       id="g8"
       transform="matrix(0.49132008,0,0,0.49132008,-529.08737,232.11903)">
      <path
         id="path113"
         style="baseline-shift:baseline;display:inline;overflow:visible;vector-effect:none;fill:#ffffff;stroke:none;stroke-width:0.104555;stroke-linecap:round;stroke-linejoin:round;enable-background:accumulate;stop-color:#000000"
         d="m 194.85347,201.22414 c -3.64336,0.002 -7.29862,0.0976 -10.96143,0.28565 -2.88778,0.14824 -5.78105,0.35288 -8.67773,0.61816 a 14.894694,14.894694 0 0 0 -3.59326,0.79834 c -61.19583,6.65666 -116.461782,38.78338 -152.169412,88.26415 a 14.894694,14.894694 0 0 0 -1.39746,1.67432 c -4.358084,6.17035 -8.3592213,12.51929 -12.0029308,19.01513 -2.7674621,4.93665 -5.35767679,10.00752 -7.754879,15.20361 a 14.894694,14.894694 0 0 0 -0.9624073,2.92382 c -3.3405296,7.52208 -6.2317642,15.19245 -8.6733359,22.97168 H 8.3071044 c 1.8030596,-5.19613 3.8289216,-10.33341 6.0776396,-15.39697 a 13.609904,13.609904 0 0 1 0.880372,-2.67187 c 2.190442,-4.74789 4.556677,-9.38174 7.085444,-13.89257 3.3294,-5.93552 6.985124,-11.73641 10.967286,-17.37452 a 13.609904,13.609904 0 0 1 1.275877,-1.52929 C 67.221277,256.90115 117.72094,227.54487 173.63814,221.46242 a 13.609904,13.609904 0 0 1 3.28271,-0.7295 c 2.6468,-0.24238 5.2905,-0.4285 7.9292,-0.56396 3.34686,-0.17182 6.68605,-0.25843 10.01513,-0.26074 0.0179,0 0.0349,0.003 0.0527,0.003 0.0178,0 0.0363,-0.003 0.0542,-0.003 1.53838,0 3.03325,0.23253 4.56592,0.26807 6.19825,0.14342 12.38939,0.37225 18.48925,1.08838 3.50563,0.41082 6.90335,1.22369 10.36231,1.81787 4.05312,0.6969 8.15022,1.20768 12.13622,2.15185 4.06549,0.96237 7.98025,2.34447 11.95898,3.55665 3.25666,0.99228 6.58502,1.77309 9.78077,2.92968 4.07808,1.47621 7.97248,3.35754 11.93408,5.09326 2.94253,1.28856 5.97391,2.37344 8.84912,3.80273 3.5928,1.78682 6.97448,3.94352 10.44873,5.94287 3.06338,1.76181 6.22618,3.34008 9.19336,5.26465 2.98554,1.93731 5.74093,4.2029 8.61914,6.29883 3.2202,2.34424 6.54799,4.53169 9.62841,7.07227 2.71498,2.23952 5.16758,4.78966 7.76367,7.1748 2.97206,2.73046 6.06639,5.31098 8.87696,8.23095 5.2592,5.46231 10.22441,11.2406 14.85497,17.32031 4.49995,5.90816 8.5614,12.19342 12.40723,18.646 0.47436,0.79563 1.06365,1.49297 1.52783,2.29687 1.65716,2.87033 3.23486,5.77166 4.73584,8.69971 1.23769,2.41626 2.42986,4.86601 3.57422,7.34619 a 13.609904,13.609904 0 0 1 1.01221,3.20654 c 2.15837,4.89539 4.10906,9.85389 5.85351,14.8623 h 19.64209 c -2.38701,-7.5674 -5.19932,-15.04126 -8.4375,-22.38574 a 14.894694,14.894694 0 0 0 -1.10743,-3.50976 c -1.25238,-2.71431 -2.5566,-5.39615 -3.91113,-8.04053 -1.64268,-3.20446 -3.37047,-6.37873 -5.18408,-9.52002 -0.50797,-0.8798 -1.15373,-1.64294 -1.67285,-2.51367 -4.20889,-7.06171 -8.65288,-13.93939 -13.57763,-20.40527 -5.06768,-6.65365 -10.50116,-12.97859 -16.25684,-18.95654 -3.07589,-3.1956 -6.46368,-6.01911 -9.7163,-9.00732 -2.84115,-2.61031 -5.52482,-5.40356 -8.4961,-7.85449 -3.3712,-2.7804 -7.01245,-5.17177 -10.53662,-7.73731 -3.14992,-2.29378 -6.16622,-4.77333 -9.43359,-6.89355 -3.24729,-2.10623 -6.70945,-3.83311 -10.06201,-5.76123 -3.80222,-2.18808 -7.5026,-4.54841 -11.43457,-6.5039 -3.14662,-1.56423 -6.46377,-2.75289 -9.68408,-4.16309 -4.33556,-1.89956 -8.59749,-3.95818 -13.06054,-5.57373 -3.49744,-1.26578 -7.13952,-2.1206 -10.70362,-3.20654 -4.35433,-1.32659 -8.63909,-2.83887 -13.08837,-3.89209 -4.3623,-1.03331 -8.84599,-1.5913 -13.28174,-2.35401 -3.78549,-0.65027 -7.50426,-1.54112 -11.34082,-1.99071 -6.6757,-0.78372 -13.45198,-1.03397 -20.23535,-1.19093 -1.67735,-0.0389 -3.31297,-0.29443 -4.99658,-0.29443 -0.0196,0 -0.0392,0.003 -0.0586,0.003 -0.0196,0 -0.0376,-0.003 -0.0571,-0.003 z M -11.248558,482.65867 c 2.3879022,7.58237 5.2053668,15.0714 8.4521464,22.43115 a 14.894694,14.894694 0 0 0 1.0927798,3.46436 c 1.59719231,3.46203 3.2819321,6.87088 5.0449194,10.21874 1.3002748,2.46717 2.6493596,4.91427 4.0517544,7.34327 4.148834,7.18624 8.675864,14.07009 13.539553,20.63671 5.156842,6.95953 10.722351,13.5489 16.623043,19.79004 2.191822,2.31907 4.635067,4.33949 6.919919,6.55224 3.872842,3.75055 7.683539,7.56269 11.813961,11.00538 2.780325,2.31726 5.780729,4.31574 8.667486,6.48633 3.937552,2.96182 7.811122,5.99949 11.938469,8.68505 3.113767,2.02521 6.399966,3.73293 9.610843,5.59424 4.17168,2.41963 8.294272,4.90435 12.622559,7.04296 3.355085,1.65706 6.840825,3.00617 10.278805,4.48829 4.40616,1.90045 8.77826,3.84575 13.31396,5.45361 3.59605,1.27469 7.28724,2.24462 10.95264,3.32959 4.53752,1.34318 9.04909,2.71928 13.68749,3.76611 3.86749,0.87355 7.79937,1.44922 11.72315,2.11084 4.56926,0.76979 9.116,1.56363 13.75781,2.04053 4.09026,0.42103 8.21899,0.54503 12.3501,0.73242 3.26955,0.14838 6.48144,0.583 9.77636,0.583 2.68729,0 5.36543,-0.0506 8.03613,-0.14941 3.89706,-0.14529 7.8062,-0.39589 11.72021,-0.75439 a 14.894694,14.894694 0 0 0 3.55371,-0.78809 c 60.93804,-6.6163 115.88412,-38.58532 151.61425,-87.70311 a 14.894694,14.894694 0 0 0 1.99365,-2.24561 c 3.43727,-4.86689 6.6512,-9.84334 9.64452,-14.9165 3.66586,-6.21735 7.0447,-12.6576 10.11035,-19.30224 a 14.894694,14.894694 0 0 0 0.78663,-2.18555 c 3.4777,-7.75756 6.47356,-15.67542 8.98828,-23.70996 h -19.64795 c -1.8793,5.42763 -4.00288,10.7907 -6.3706,16.07227 a 13.609904,13.609904 0 0 1 -0.71924,1.99658 c -2.80121,6.07149 -5.88618,11.95565 -9.23584,17.63671 -2.73513,4.63555 -5.67317,9.1833 -8.81396,13.63038 a 13.609904,13.609904 0 0 1 -1.82227,2.05077 c -32.64812,44.88098 -82.85449,74.09455 -138.53611,80.14013 a 13.609904,13.609904 0 0 1 -3.2461,0.71924 c -3.57639,0.32757 -7.14856,0.55573 -10.70947,0.68847 -2.44032,0.0903 -4.88776,0.13623 -7.34326,0.13623 -3.01071,0 -5.94656,-0.39615 -8.93408,-0.53173 -3.77476,-0.17122 -7.54625,-0.28473 -11.28369,-0.66944 -4.24141,-0.43575 -8.39617,-1.16135 -12.57129,-1.86474 -3.58532,-0.60454 -7.17705,-1.131 -10.71093,-1.9292 -4.2383,-0.95652 -8.36216,-2.21214 -12.5083,-3.43945 -3.34922,-0.99138 -6.72196,-1.87921 -10.00781,-3.04394 -4.14446,-1.46916 -8.13943,-3.24688 -12.16553,-4.9834 -3.14142,-1.35428 -6.3269,-2.58744 -9.39257,-4.10156 -3.95494,-1.95414 -7.720878,-4.22414 -11.532722,-6.43506 -2.93391,-1.70076 -5.936557,-3.2618 -8.781734,-5.11231 -3.77133,-2.45392 -7.312259,-5.22872 -10.910159,-7.93506 -2.637764,-1.98335 -5.378444,-3.80791 -7.918941,-5.92529 -3.774135,-3.14572 -7.257127,-6.62913 -10.795896,-10.05615 -2.087775,-2.02188 -4.319505,-3.86925 -6.322267,-5.98828 -5.391697,-5.7028 -10.478406,-11.72281 -15.19043,-18.08203 -4.44414,-6.00018 -8.579654,-12.29057 -12.370604,-18.85693 -1.281427,-2.21947 -2.513542,-4.45607 -3.701654,-6.71044 -1.610925,-3.05908 -3.148972,-6.17352 -4.608397,-9.33692 a 13.609904,13.609904 0 0 1 -0.99903,-3.16553 c -2.16564,-4.90906 -4.122322,-9.88126 -5.8696266,-14.90332 z" />
      <g
         id="g114"
         transform="matrix(0.11585534,0,0,0.11585534,1749.6993,-79.671968)">
        <path
           id="path114"
           style="fill:#ffffff;fill-opacity:1;fill-rule:evenodd;stroke:#ffffff;stroke-width:26.7442;stroke-dasharray:none;stroke-opacity:1"
           d="m -12677.235,3932.8812 c -49.477,-26.7442 -73.547,-97.6163 -49.477,-143.0812 4.68,-10.0291 18.721,-27.4128 30.087,-38.1105 19.39,-18.7209 24.739,-20.0582 70.872,-20.0582 45.465,0 50.815,1.3373 70.204,20.0582 11.366,10.6977 25.407,28.0814 30.087,38.1105 19.39,35.4358 7.355,99.6219 -23.401,123.6916 -22.064,18.0523 -61.511,35.436 -80.233,35.436 -11.366,0 -32.761,-7.3546 -48.139,-16.0464 m -2747.964,6.686 c -77.558,-31.4244 -95.611,-127.0349 -36.105,-184.5347 20.727,-20.0581 28.75,-23.4012 65.523,-25.407 35.436,-2.6744 45.466,-0.6685 64.855,12.7035 33.43,23.4012 48.808,47.471 51.483,83.5754 4.011,40.1163 -10.698,70.8721 -46.134,96.9477 -29.419,22.064 -70.204,29.4186 -99.622,16.7151 m 3058.865,655.901 c 1.337,-4.6803 15.378,-10.0291 31.425,-11.3663 l 30.087,-3.3431 1.336,-272.7905 2.007,-272.1221 -15.378,-3.3429 c -8.024,-2.0059 -22.733,-4.0117 -31.424,-5.349 -9.361,-0.6685 -16.716,-4.6802 -16.716,-8.0231 0,-4.6803 46.802,-8.0233 125.029,-8.6919 l 125.698,-2.0059 v 26.7442 c 0,32.7617 10.029,34.7674 43.459,10.0291 50.814,-38.779 125.698,-54.8256 205.93,-43.4592 58.837,8.0231 95.61,24.0697 125.698,56.8313 l 22.064,22.064 27.413,-22.7326 c 15.377,-12.7035 47.47,-30.7559 70.872,-40.1163 35.436,-15.3779 52.819,-18.0523 106.308,-18.7209 75.553,0 119.012,12.7035 159.128,47.4709 63.517,54.1569 74.215,103.6337 74.215,348.3429 l 0.669,189.2151 h 30.087 c 22.063,0 30.087,2.0058 30.087,10.029 0,8.0233 -22.064,10.0291 -157.122,10.0291 -135.727,0 -157.122,-2.0058 -157.122,-10.0291 0,-8.0232 7.355,-10.029 30.087,-10.029 h 30.088 V 4364.131 c 0,-236.0173 -4.012,-264.7673 -36.106,-293.5174 -16.714,-15.3778 -52.15,-28.0813 -78.226,-28.0813 -27.412,0 -73.547,22.0639 -95.611,45.465 -18.052,18.721 -19.389,22.7327 -14.709,54.1571 2.005,18.7209 4.012,117.0058 4.012,218.6336 0,101.6278 2.006,193.2266 4.011,203.9244 4.012,17.3837 6.686,19.3895 33.431,19.3895 21.395,0 29.418,2.0058 29.418,10.029 0,8.0233 -22.732,10.0291 -163.808,10.0291 -141.744,0 -163.808,-2.0058 -163.808,-10.0291 0,-8.0232 8.024,-10.029 36.773,-10.029 h 37.442 l -2.006,-229.3313 c -2.006,-222.6453 -2.674,-230 -17.383,-257.4127 -40.117,-74.2151 -154.448,-69.5349 -202.587,9.3604 -12.704,20.0581 -13.373,32.7616 -11.367,247.3836 l 2.006,226.6569 31.424,2.0059 c 22.064,1.3372 32.093,4.6802 32.093,11.3662 0,8.0233 -25.406,10.0291 -160.465,10.0291 -125.697,0 -160.465,-2.0058 -158.459,-8.6918 m -413.866,1.3372 c -4.681,-8.0233 5.349,-12.035 37.442,-14.7093 l 23.401,-1.3373 1.337,-270.7848 c 2.006,-291.5115 3.343,-280.8138 -34.098,-280.8138 -12.036,0 -18.054,-3.343 -16.047,-8.6918 2.006,-6.0175 33.43,-8.6919 121.017,-10.0291 l 118.343,-2.0059 v 276.8023 c 0,152.4418 1.337,282.151 4.012,288.1685 2.674,7.3546 12.703,10.6977 33.43,10.6977 21.395,0 29.419,2.0058 29.419,10.029 0,8.0233 -22.065,10.0291 -157.123,10.0291 -98.953,0 -159.128,-2.6744 -161.133,-7.3546 m -624.477,-2.6745 c 0,-8.0232 7.355,-10.029 30.087,-10.029 h 30.088 l -2.007,-276.1336 -1.336,-275.465 -28.75,-2.6745 c -19.39,-1.3372 -28.082,-4.6802 -28.082,-11.3663 0,-8.0232 20.727,-9.3605 126.367,-9.3605 h 127.035 l 2.005,64.8547 2.006,65.5232 18.052,-37.4418 c 36.105,-74.2151 80.233,-102.9651 159.128,-102.9651 60.843,0 87.588,12.7035 106.308,49.4767 17.384,33.4302 17.384,54.157 0.669,86.9186 -18.721,36.7733 -62.849,57.4999 -100.291,47.4709 -29.419,-8.0233 -54.157,-35.436 -66.86,-74.8837 -8.692,-28.75 -29.418,-48.8081 -43.459,-43.4593 -16.047,6.0174 -35.436,42.1221 -54.826,101.6279 -17.384,51.4825 -18.052,59.5058 -20.727,235.3487 l -2.675,182.5291 h 30.756 c 22.733,0 30.756,2.0058 30.756,10.029 0,8.0233 -22.063,10.0291 -157.122,10.0291 -135.726,0 -157.122,-2.0058 -157.122,-10.0291 m -735.465,0 c 0,-6.686 9.361,-10.029 31.425,-11.3662 l 32.093,-2.0059 v -337.6452 -337.6452 l -32.093,-2.6744 c -22.064,-1.3372 -31.425,-4.6803 -31.425,-11.3663 0,-14.7093 359.041,-14.0407 427.239,0 108.313,22.7325 173.168,74.8836 196.569,158.4593 32.093,112.3254 -9.36,211.9475 -110.32,262.0929 -50.145,24.7383 -84.244,31.4244 -175.843,36.7732 l -80.232,4.6802 v 113.6628 113.6627 l 29.419,3.3431 c 16.047,1.3372 30.087,6.686 31.424,11.3663 2.006,6.686 -32.761,8.6918 -157.791,8.6918 -135.726,0 -160.465,-2.0058 -160.465,-10.0291 m 256.745,-272.7906 c -1.338,-4.6802 -2.675,-100.2906 -1.338,-212.6162 l 2.006,-203.2557 39.448,2.0058 c 100.959,5.3488 144.419,68.1977 144.419,209.9418 0,112.3255 -21.396,165.1453 -76.89,191.2209 -36.773,17.3837 -102.297,24.7383 -107.645,12.7034 m -1658.139,275.4651 c -4.681,-8.0233 5.348,-12.035 37.441,-14.7093 l 23.402,-1.3373 1.337,-270.7848 c 2.006,-290.8428 3.343,-280.8138 -33.43,-280.8138 -12.036,0 -18.053,-4.0116 -18.053,-10.029 0,-8.6919 17.384,-10.0292 120.349,-10.0292 h 120.349 v 276.8023 c 0,151.7732 1.337,281.4824 4.012,287.4999 2.674,7.3546 12.702,10.6977 33.429,10.6977 21.396,0 29.42,2.0058 29.42,10.029 0,8.0233 -22.065,10.0291 -157.123,10.0291 -98.953,0 -159.128,-2.6744 -161.133,-7.3546 m 4665.521,14.0406 c -95.61,-16.0464 -179.855,-66.1918 -215.291,-129.0406 -54.825,-96.279 -54.156,-259.4185 2.675,-355.6976 50.145,-86.25 173.169,-138.4011 293.517,-123.0232 132.385,16.0466 219.303,109.6511 238.024,258.0813 4.68,34.7675 6.685,66.8604 4.68,72.2093 -3.343,8.0233 -33.431,10.0291 -194.564,10.0291 -104.303,0 -191.221,2.0058 -193.227,4.6802 -5.348,9.3605 9.361,95.6104 22.064,123.6918 38.779,92.2675 130.378,127.0349 236.018,90.9302 42.122,-14.7093 86.919,-39.4477 94.942,-52.1511 5.349,-8.6919 17.383,-9.3605 17.383,-1.3372 0,8.6918 -34.767,44.1279 -56.163,57.4999 -63.517,38.7791 -169.157,57.5 -250.058,44.1279 m -65.523,-294.1859 c -6.686,-12.0349 4.68,-121.686 18.053,-180.5232 19.389,-85.5813 41.453,-113.6628 87.587,-113.6628 46.134,0 71.54,36.7733 92.267,135.0581 6.686,34.0989 12.703,84.9128 12.703,113.6628 l 0.67,52.1511 h -103.635 c -61.511,0 -105.639,-3.3429 -107.645,-6.686 m -4059.766,294.8545 c -36.773,-6.686 -80.232,-27.4127 -96.948,-45.465 -16.047,-18.0524 -31.424,-58.8372 -31.424,-82.2384 0,-32.7616 19.39,-82.2384 42.122,-106.3081 40.116,-42.1221 106.308,-67.5291 218.634,-84.2442 42.122,-6.686 80.901,-14.0407 86.918,-16.715 8.024,-4.6802 9.361,-20.0582 8.024,-88.2559 -3.343,-135.7267 -20.059,-165.8139 -93.605,-165.8139 -64.855,0 -79.564,20.0582 -58.169,80.2326 28.082,79.5639 -8.023,146.4243 -78.896,146.4243 -72.877,0.6687 -116.336,-68.8662 -85.581,-135.0581 20.727,-44.1279 54.826,-71.5406 117.675,-95.6104 27.412,-10.6976 50.814,-12.7035 133.72,-12.7035 112.326,-0.6686 148.431,8.0233 192.559,43.4593 54.157,44.7966 64.186,92.2675 64.186,304.215 0.668,201.2499 4.011,216.6279 52.151,216.6279 30.755,0.6686 26.744,10.6976 -10.029,24.7384 -47.471,18.7209 -142.412,16.715 -180.523,-2.6745 -15.379,-8.6918 -31.425,-21.3953 -35.436,-28.75 -8.023,-16.0464 -21.395,-16.715 -33.431,-2.6744 -15.377,18.7209 -60.843,37.4418 -110.988,47.471 -57.5,10.6976 -59.506,10.6976 -100.959,3.3429 m 121.018,-54.1569 c -70.872,-25.407 -95.611,-128.372 -48.14,-195.9011 20.058,-28.0814 73.546,-52.1512 118.342,-54.1569 l 38.111,-0.6686 2.006,102.2964 c 2.005,114.9999 -1.338,128.372 -42.79,145.0871 -26.745,11.3664 -43.46,12.035 -67.529,3.3431 m -1103.867,60.1744 c -158.459,-24.7384 -254.069,-105.6395 -290.174,-243.372 -15.378,-60.843 -16.715,-195.9011 -2.006,-257.4127 22.733,-96.279 76.221,-167.8198 157.122,-208.6046 115.669,-58.8372 237.355,-59.5058 355.03,-2.0058 25.406,12.0348 50.813,22.7325 56.162,22.7325 18.721,0 34.767,-12.7034 39.448,-30.0872 2.005,-9.3604 8.691,-16.7151 14.041,-16.7151 8.023,0 10.028,20.7268 10.028,140.4069 0,112.3256 -2.005,140.407 -9.36,140.407 -6.018,0 -12.035,-16.7151 -17.384,-47.4709 -14.709,-82.9069 -64.854,-162.4709 -123.692,-197.2384 -40.116,-23.4011 -66.192,-30.0871 -118.343,-30.7558 -34.767,-0.6686 -50.145,2.6745 -68.197,13.3721 -51.482,32.0931 -79.564,90.9302 -94.942,197.2384 -12.035,88.2557 -12.035,191.8895 0.669,288.1685 13.371,103.6337 40.784,161.8022 90.261,193.2266 44.128,28.0815 143.75,26.7442 201.25,-2.6744 56.831,-29.4185 113.663,-107.6453 124.36,-171.1627 3.343,-20.7268 17.384,-36.1046 24.739,-28.0814 4.68,4.0117 -15.378,71.5407 -30.756,105.6395 -20.726,44.7965 -81.57,102.2965 -127.704,119.6802 -45.465,16.7151 -134.389,24.0698 -190.552,14.7093" />
      </g>
      <path
         id="path115"
         style="font-size:720.388px;font-family:Candara;-inkscape-font-specification:Candara;fill:#ffffff;stroke-width:18.0097;stroke-linecap:square"
         d="m 160.88882,512.96566 -0.34296,3.93082 c -2.16328,0.65075 -4.52001,0.97612 -7.07021,0.97612 -6.05014,0 -10.59654,-1.65323 -13.63919,-4.9597 -3.04265,-3.32405 -4.56398,-7.378 -4.56398,-12.16182 0,-5.01247 1.6972,-9.33022 5.09161,-12.95327 3.39441,-3.64063 7.95839,-5.46095 13.69194,-5.46095 1.58288,0 3.25371,0.23744 5.01247,0.7123 l -0.73868,4.19465 c -2.02257,-0.63316 -3.8253,-0.94974 -5.40818,-0.94974 -4.2562,0 -7.48353,1.31907 -9.68198,3.95721 -2.19845,2.63814 -3.29767,5.86547 -3.29767,9.68197 0,3.88686 1.2663,7.21971 3.79892,9.99855 2.53261,2.77884 6.03255,4.16826 10.49979,4.16826 1.706,0 3.92204,-0.37814 6.64812,-1.1344 z m 36.50488,4.19464 h -5.56647 c 0,-1.17836 -1.10802,-4.88055 -3.32406,-11.10656 H 173.2811 c -2.18086,6.13806 -3.27129,9.84026 -3.27129,11.10656 h -5.32904 c 0,-0.65074 2.2688,-6.26998 6.8064,-16.85771 4.5376,-10.60532 6.8064,-16.43561 6.8064,-17.49086 h 6.12049 c 0,1.03767 2.16327,6.78002 6.48981,17.22705 4.32655,10.44703 6.48983,16.15421 6.48983,17.12152 z M 187.28962,502.59777 C 183.15654,492.27385 181.09,486.78652 181.09,486.13579 h -0.2902 c 0,0.54521 -2.13689,6.03254 -6.41068,16.46198 z m 40.78009,14.56253 h -5.0916 c -1.68841,-5.04764 -2.91954,-8.38928 -3.6934,-10.02493 -0.98491,-2.05775 -2.10172,-3.38561 -3.35044,-3.98359 -0.98491,-0.47486 -2.75245,-0.71229 -5.30266,-0.71229 -1.49494,0 -2.82281,0.0176 -3.98359,0.0528 0,5.68079 0.10553,10.57015 0.31658,14.66805 h -4.90694 c 0.26381,-5.45215 0.39572,-11.46711 0.39572,-18.04487 0,-6.19084 -0.13191,-11.62541 -0.39572,-16.3037 h 3.71978 c 0.79144,0 1.79394,-0.0264 3.00748,-0.0791 1.21354,-0.0528 2.60296,-0.0792 4.16826,-0.0792 7.70336,0 11.55505,2.65573 11.55505,7.96718 0,4.41449 -2.16328,7.5187 -6.48983,9.31263 v 0.26382 c 1.93464,0.58039 3.49994,1.92584 4.69589,4.03635 1.00249,1.75876 2.78763,6.06772 5.35542,12.92688 z m -8.0727,-24.74575 c 0.3407,-4.20477 3.06333,-6.60626 -8.49481,-6.27876 -2.02176,0.0573 -3.71977,0.11431 -5.09161,0.34295 0.12312,3.06025 0.18467,7.21971 0.18467,12.4784 1.05526,0.0352 2.06655,0.0528 3.03386,0.0528 6.91192,0 10.01278,-2.21281 10.36789,-6.59535 z m 34.73042,20.76216 -0.15829,3.98359 h -21.2634 c 0.24622,-5.45215 0.36934,-11.46711 0.36934,-18.04487 0,-6.19084 -0.12312,-11.62541 -0.36934,-16.3037 h 19.94433 l -0.21105,3.93083 c -4.8366,-0.21106 -9.96338,-0.31658 -15.38036,-0.31658 0.10554,2.72607 0.1583,6.41068 0.1583,11.0538 4.6783,0 8.84656,-0.10552 12.50478,-0.31657 v 3.93082 c -3.90445,-0.15829 -8.07271,-0.23743 -12.50478,-0.23743 0,4.52001 0.0791,8.75862 0.23743,12.71583 5.83908,0 11.39676,-0.13191 16.67304,-0.39572 z"
         sodipodi:nodetypes="ccscscsccsssssccccccccccsccccccccccscccscssssccccssccsscccscccccccccc" />
    </g>
  </g>
  <text
     x="195.55847"
     y="779.01654"
     text-anchor="middle"
     font-family="sans-serif"
     font-size="16.576px"
     fill="#ffffff"
     opacity="0.7"
     id="text8-1"
     style="stroke-width:2.07199">Companhia pra cuidar. Tempo pra viver.</text>
</svg>
