<?xml version="1.0" encoding="UTF-8" standalone="no"?>
<!-- Created with Inkscape (http://www.inkscape.org/) -->

<svg
   width="255.99998"
   height="255.99998"
   viewBox="0 0 67.733329 67.733327"
   version="1.1"
   id="svg1"
   xml:space="preserve"
   xmlns="http://www.w3.org/2000/svg"
   xmlns:svg="http://www.w3.org/2000/svg"><defs
     id="defs1" /><g
     id="layer1"
     transform="translate(9.6521606e-7,101.07188)"><g
       id="icon-256"
       transform="translate(0.5728526,-11.194161)"><g
         id="g40"><rect
           style="fill:none;fill-opacity:1;stroke:none;stroke-width:4.83819;stroke-linecap:butt;stroke-linejoin:miter;stroke-dasharray:none;stroke-opacity:1;paint-order:markers stroke fill"
           id="rect56"
           width="67.73333"
           height="67.73333"
           x="-0.57285357"
           y="-89.877724" /><g
           id="g39"
           style="stroke:#000000;stroke-width:0.264583;stroke-linecap:round;stroke-linejoin:round;stroke-dasharray:none"
           transform="matrix(2.2276555,0,0,2.2277701,105.79007,50.675921)"><path
             id="path20-6"
             style="fill:#000000;stroke:#000000;stroke-width:0.264583;stroke-linecap:round;stroke-linejoin:round;stroke-dasharray:none;paint-order:markers stroke fill"
             d="m -38.519232,-34.660416 h -7.253684 v -8.479147 c 0,8.443224 0.01094,8.479147 7.253684,8.479147 z m 0,-26.458333 h -7.253684 v 8.479147 c 0,-8.443224 0.01094,-8.479147 7.253684,-8.479147 z m 11.950965,26.458333 h 7.253684 v -8.479147 c 0,8.443224 -0.01094,8.479147 -7.253684,8.479147 z m 0,-26.458333 h 7.253684 v 8.479147 c 0,-8.443224 -0.01094,-8.479147 -7.253684,-8.479147 z" /><path
             id="path33"
             style="fill:#000000;stroke:#000000;stroke-width:0.264583;stroke-linecap:round;stroke-linejoin:round;stroke-dasharray:none;paint-order:markers stroke fill"
             d="m -32.54375,-58.553014 a 8.0146389,10.663546 0 0 1 6.406844,4.256587 10.663546,8.0146389 0 0 1 4.256588,6.406844 10.663546,10.663546 0 0 0 -10.663432,-10.663431 z m 0,0 a 10.663546,10.663546 0 0 0 -10.663431,10.663431 10.663546,8.0146389 0 0 1 4.256588,-6.406844 8.0146389,10.663546 0 0 1 6.406843,-4.256587 z m -10.663431,10.663431 a 10.663546,10.663546 0 0 0 10.663431,10.663432 8.0146389,10.663546 0 0 1 -6.406843,-4.256588 10.663546,8.0146389 0 0 1 -4.256588,-6.406844 z m 10.663431,10.663432 a 10.663546,10.663546 0 0 0 10.663432,-10.663432 10.663546,8.0146389 0 0 1 -4.256588,6.406844 8.0146389,10.663546 0 0 1 -6.406844,4.256588 z" /><path
             id="path38"
             style="fill:#000000;stroke:#000000;stroke-width:0.278746;stroke-linecap:round;stroke-linejoin:round;stroke-dasharray:none;paint-order:markers stroke fill"
             d="m -62.153729,-0.98448851 -1.945982,8.52571501 8.525715,-1.9459819 1.945982,-8.525715 z m 0.137624,0.13762451 3.871719,7.618e-5 4.297341,-1.86465208 -1.864652,4.2973407 7.6e-5,3.8717193 -3.871719,-7.62e-5 -4.297341,1.8646521 1.864652,-4.2973407 z"
             transform="matrix(0.53202801,0.84672676,-0.53202801,0.84672676,0,0)" /></g></g></g></g></svg>
