<?xml version="1.0" encoding="UTF-8" standalone="no"?>
<svg
   viewBox="0 0 100 100"
   version="1.1"
   id="svg4"
   sodipodi:docname="icon-ui.svg"
   inkscape:version="1.4.3 (0d15f75, 2025-12-25)"
   xmlns:inkscape="http://www.inkscape.org/namespaces/inkscape"
   xmlns:sodipodi="http://sodipodi.sourceforge.net/DTD/sodipodi-0.dtd"
   xmlns="http://www.w3.org/2000/svg"
   xmlns:svg="http://www.w3.org/2000/svg">
  <defs
     id="defs4" />
  <sodipodi:namedview
     id="namedview4"
     pagecolor="#ffffff"
     bordercolor="#000000"
     borderopacity="0.25"
     inkscape:showpageshadow="2"
     inkscape:pageopacity="0.0"
     inkscape:pagecheckerboard="0"
     inkscape:deskcolor="#d1d1d1"
     inkscape:zoom="3.865"
     inkscape:cx="79.430789"
     inkscape:cy="19.793014"
     inkscape:window-width="1920"
     inkscape:window-height="991"
     inkscape:window-x="-9"
     inkscape:window-y="-9"
     inkscape:window-maximized="1"
     inkscape:current-layer="g4" />
  <!-- Canvas Border (Blue) = Safe Zone (Green) - SEM MARGEM -->
  <!-- Textos de guia -->
  <!-- Instruções -->
  <g
     id="logo-light-small"
     transform="matrix(0.1,0,0,0.1,333.12898,-305.15571)">
    <g
       id="g4"
       transform="matrix(0.18493564,0,0,0.18493564,-1695.9479,2749.2182)">
      <g
         id="path31"
         style="opacity:1;fill:#ffffff">
        <path
           id="path89"
           style="baseline-shift:baseline;display:inline;overflow:visible;vector-effect:none;fill:#ffffff;stroke-linecap:round;stroke-linejoin:round;enable-background:accumulate;stop-color:#000000;stop-opacity:1"
           d="m -6139.1211,2157.2266 c -517.6417,0 -1006.8339,183.3954 -1390.8008,501.0546 a 150,150 0 0 0 -4.4531,3.5743 c -37.8339,31.4847 -72.2456,65.8424 -107.5391,99.4726 -19.2218,18.3011 -39.8263,34.9804 -58.3984,54.0039 -53.6411,54.9679 -104.1703,112.3372 -151.2305,171.9922 -53.1517,67.3402 -102.412,138.2563 -147.7148,212.2656 -16.1163,26.3413 -28.6214,54.4614 -43.5742,81.4063 -26.3392,47.4108 -53.951,93.92 -76.9141,143.6914 a 150,150 0 0 0 -2.4414,5.6055 c -19.2038,41.9617 -37.0642,84.4994 -53.5547,127.539 h 324.8242 c 0.255,-0.5592 0.5062,-1.1207 0.7618,-1.6797 10.3213,-22.5766 23.4462,-43.8568 34.6679,-66.0351 20.2783,-40.0733 39.9366,-80.6014 62.793,-118.7695 34.7467,-57.9673 72.5558,-114.3216 113.6719,-168.5938 43.5451,-57.5399 90.3426,-112.138 139.7851,-163.8867 32.7784,-34.2772 69.0713,-65.7791 104.7071,-97.793 19.3175,-17.3518 37.0975,-36.5117 57.0898,-53.0273 330.8147,-273.2855 752.0298,-430.8203 1198.3203,-430.8203 106.424,0 211.4152,8.958 314.1016,26.3086 41.6143,7.0314 81.2937,20.1717 122.0898,29.9218 48.7542,11.6542 98.5284,20.7163 145.7422,36.0547 85.5736,27.83 168.8395,61.5245 249.082,101.0352 47.8505,23.5511 94.5385,49.1282 140,76.5234 18.7553,11.302 36.437,24.2625 54.7852,36.2109 26.2162,17.0754 52.8708,33.5233 78.1641,51.8555 18.8376,13.6506 36.494,28.8933 54.8242,43.2422 23.5422,18.434 47.6091,36.2383 70.2343,55.7617 17.7956,15.3538 34.2927,32.2291 51.5235,48.2617 21.7228,20.2147 43.9959,39.8283 64.7461,61.0547 17.6794,18.0875 33.9443,37.6526 50.9179,56.4844 18.6546,20.6926 37.9652,40.7777 55.7032,62.3047 18.6769,22.6771 35.7206,46.8474 53.3789,70.4687 14.3307,19.1597 29.4925,37.6337 43.1054,57.3633 20.588,29.8599 39.3014,61.2586 58.2422,92.461 8.9662,14.7627 18.8694,28.8521 27.4414,43.8867 20.2776,35.5813 38.488,72.6563 56.5625,109.8242 6.3505,13.0658 13.7261,25.4905 19.7852,38.7305 0.4344,0.9492 0.8757,1.9014 1.3086,2.8515 h 322.539 c -13.9949,-35.1423 -28.7656,-69.8838 -44.082,-104.3164 a 150,150 0 0 0 -9.5703,-28.8281 c -22.851,-49.5284 -47.4186,-97.926 -73.6133,-145.1172 -43.953,-79.1215 -93.6638,-154.2663 -146.6797,-226.7969 -17.882,-24.4776 -37.6429,-47.0356 -56.4648,-70.664 -37.1829,-46.6743 -75.3237,-92.2963 -116.1133,-135.6836 -23.517,-25.0079 -47.9075,-48.7634 -72.5195,-72.5781 -40.5814,-39.2948 -82.5072,-76.8307 -126.0156,-112.8711 -25.8912,-21.4296 -51.6515,-42.6974 -78.4766,-62.8907 -47.9359,-36.1215 -97.8172,-69.3795 -148.6914,-101.5039 -24.6253,-15.5377 -48.4204,-32.1151 -73.6524,-46.6601 -68.5907,-39.5648 -139.5051,-75.2479 -212.5,-107.3047 -9.0053,-3.9558 -17.4025,-9.0551 -26.4648,-12.8906 -82.4561,-34.8843 -167.681,-64.1981 -254.8828,-88.9063 -26.1502,-7.4202 -53.1273,-11.9857 -79.6094,-18.4375 -48.1166,-11.7113 -95.621,-25.0518 -144.9023,-33.5351 a 150,150 0 0 0 -27.5782,-1.8555 c -112.3957,-17.9047 -226.3353,-29.7659 -342.4609,-29.7656 z m -2034.4141,2961.875 c 14.0895,35.4443 28.9758,70.4828 44.4336,105.1953 a 150,150 0 0 0 9.3555,27.9492 c 26.0089,56.3747 54.2456,111.273 84.5703,164.6094 44.2367,77.7404 94.067,151.5528 147.1094,222.7929 17.964,24.1394 37.7559,46.3906 56.6406,69.6875 37.1624,45.8426 75.2681,90.6363 115.9375,133.2422 23.3818,24.488 47.5712,47.7917 72.0117,71.1133 40.5907,38.7606 82.5325,75.7567 125.9961,111.2891 25.5726,20.8888 50.9926,41.6564 77.461,61.3476 48.1176,35.833 98.1627,68.7993 149.1992,100.625 23.9633,14.9326 47.091,30.9446 71.6211,44.9414 70.3214,40.1485 142.936,76.5152 217.832,108.7891 6.6181,2.8529 12.7656,6.6063 19.4141,9.3945 81.719,34.2541 166.1902,62.9292 252.539,87.2071 26.4696,7.453 53.7392,12.1128 80.5469,18.5742 46.4298,11.1799 92.2164,24.0681 139.7266,32.2461 a 150,150 0 0 0 27.8906,1.8359 c 112.2958,17.8726 226.1107,29.7849 342.1289,29.7852 517.5093,0 1006.5872,-183.309 1390.5078,-500.8204 a 150,150 0 0 0 4.7656,-3.8085 c 41.7461,-34.7411 79.143,-73.125 117.793,-110.4688 22.5479,-21.7655 46.8625,-41.4718 68.4961,-64.2383 59.7688,-62.9255 115.5236,-128.8544 166.8164,-197.6367 45.4429,-60.904 87.7813,-124.5573 126.9922,-190.6055 12.9923,-21.8949 23.29,-45.1028 35.4883,-67.4023 23.9262,-43.6976 48.6898,-86.8179 69.7656,-132.5 a 150,150 0 0 0 2.2852,-5.2149 c 19.2703,-42.0869 37.19,-84.758 53.7304,-127.9296 h -324.8242 c -0.2216,0.486 -0.442,0.979 -0.6641,1.4648 -10.303,22.5454 -23.6233,43.6916 -34.8242,65.8398 -22.1824,43.8552 -43.8394,88.0987 -69.1015,129.668 -37.1548,61.0795 -77.7135,120.3358 -121.9727,177.2266 -41.7422,53.7125 -86.3698,104.7745 -133.3203,153.3008 -31.9093,32.952 -66.9491,63.4116 -101.5234,94.2382 -17.5646,15.6592 -33.7767,32.9191 -51.8946,47.8907 -330.8444,273.3913 -752.1335,430.9961 -1198.5156,430.9961 -106.3552,0 -211.2834,-8.9408 -313.9062,-26.2696 -42.8603,-7.2373 -83.6344,-21.0127 -125.625,-31.1328 -50.995,-12.292 -103.0841,-21.8434 -152.3829,-38.164 -88.7045,-29.3987 -174.8967,-65.1333 -257.7734,-107.0899 -46.8084,-23.6879 -92.4656,-49.3097 -136.9336,-76.6992 -17.9906,-11.0809 -34.9512,-23.73 -52.5586,-35.4102 -25.9538,-17.2201 -52.3321,-33.8644 -77.3633,-52.3242 -18.3474,-13.5284 -35.5424,-28.597 -53.3984,-42.7929 -23.1329,-18.3961 -46.7534,-36.1892 -68.9844,-55.6446 -17.3588,-15.1895 -33.4619,-31.8349 -50.2734,-47.6758 -21.2343,-20.0101 -43.0115,-39.4455 -63.3008,-60.4296 -18.1162,-18.7395 -34.8051,-38.9499 -52.168,-58.4766 -17.4168,-19.5826 -35.5263,-38.5301 -52.1289,-58.8477 -19.5687,-23.9594 -37.5027,-49.4115 -55.9375,-74.414 -12.7488,-17.2808 -26.327,-33.8832 -38.4961,-51.6211 -20.8378,-30.3957 -39.8504,-62.2843 -58.9843,-94.0625 -8.2037,-13.6178 -17.2869,-26.6018 -25.1563,-40.4492 -20.7177,-36.4728 -39.4477,-74.3854 -57.8516,-112.5196 -5.5248,-11.4544 -12.0032,-22.3186 -17.3046,-33.9062 -0.4098,-0.8957 -0.8221,-1.7988 -1.2305,-2.6953 z" />
      </g>
      <g
         id="g39"
         transform="translate(-0.00528906,-109.37592)"
         style="fill:#ffffff">
        <path
           id="path29"
           style="fill:#ffffff;fill-opacity:1;fill-rule:evenodd;stroke:#ffffff;stroke-width:40;stroke-dasharray:none;stroke-opacity:1"
           d="m -6634.7543,3978.6606 c -74.0001,-40.0001 -110.0002,-146.0002 -74.0001,-214.0003 7,-15 28,-41 45,-57 29.0001,-28.0001 37.0001,-30.0001 106.0001,-30.0001 68.0001,0 76.0001,2 105.0002,30.0001 17,16 38,42 45,57 29.0001,53.0001 11,149.0002 -35,185.0003 -33.0001,27 -92.0001,53 -120.0002,53 -17,0 -49,-11 -72,-24 m 465.0005,991.0012 c 2,-7 23,-15 47.0001,-17 l 45,-5 2,-408.0005 3,-407.0005 -23,-5 c -12,-3 -34,-6 -47.0001,-8 -14,-1 -25,-7.0001 -25,-12.0001 0,-7 70.0001,-12 187.0002,-13 l 188.0003,-3 v 40.0001 c 0,49 15,52 65,15 76.0001,-58.0001 188.0003,-82.0001 308.0004,-65.0001 88.0001,12 143.0002,36.0001 188.0002,85.0001 l 33.0001,33.0001 41,-34.0001 c 23.0001,-19 71.0001,-46 106.0002,-60.0001 53,-23 79.0001,-27 159.0001,-28 113.0002,0 178.0003,19 238.0003,71.0001 95.0001,81.0001 111.0002,155.0002 111.0002,521.0006 l 1,283.0004 h 45 c 33.0001,0 45.0001,3 45.0001,15 0,12 -33.0001,15 -235.0003,15 -203.0002,0 -235.0003,-3 -235.0003,-15 0,-12 11,-15 45.0001,-15 h 45 v -329.0004 c 0,-353.0005 -6,-396.0005 -54,-439.0006 -25.0001,-23 -78.0001,-42 -117.0002,-42 -41,0 -110.0001,33 -143.0002,68.0001 -27,28 -29,34 -22,81.0001 3,28 6,175.0002 6,327.0004 0,152.0001 3,289.0003 6,305.0003 6,26.0001 10,29.0001 50.0001,29.0001 32,0 44,3 44,15 0,12 -34,15 -245.0003,15 -212.0002,0 -245.0002,-3 -245.0002,-15 0,-12 12,-15 55,-15 h 56.0001 l -3,-343.0005 c -3,-333.0004 -4,-344.0004 -26,-385.0004 -60.0001,-111.0002 -231.0003,-104.0001 -303.0004,14 -19,30 -20,49.0001 -17,370.0004 l 3,339.0005 47,3 c 33.0001,2 48.0001,7 48.0001,17 0,12 -38.0001,15 -240.0003,15 -188.0002,0 -240.0003,-3 -237.0003,-13 m -619.0007,2 c -7,-12 8,-18 56,-22 l 35.0001,-2 2,-405.0005 c 3,-436.0006 5,-420.0005 -51.0001,-420.0005 -18,0 -27,-5 -24,-13.0001 3,-9 50.0001,-13 181.0002,-15 l 177.0002,-3 v 414.0005 c 0,228.0003 2,422.0005 6,431.0005 4,11.0001 19.0001,16.0001 50.0001,16.0001 32,0 44,3 44,15 0,12 -33,15 -235.0002,15 -148.0002,0 -238.0003,-4 -241.0003,-11 m -934.0012,-4 c 0,-12 11.0001,-15 45.0001,-15 h 45.0001 l -3,-413.0005 -2.0001,-412.0005 -43,-4 c -29,-2 -42.0001,-7 -42.0001,-17.0001 0,-12 31.0001,-14 189.0003,-14 h 190.0002 l 3,97.0001 3,98.0002 27,-56.0001 c 54.0001,-111.0001 120.0002,-154.0002 238.0003,-154.0002 91.0001,0 131.0002,19 159.0002,74.0001 26.0001,50.0001 26.0001,81.0001 1,130.0002 -28,55 -94.0001,86.0001 -150.0002,71 -44,-12 -81.0001,-53 -100.0001,-112.0001 -13,-43.0001 -44,-73.0001 -65.0001,-65.0001 -24,9 -53,63.0001 -82.0001,152.0002 -26,77.0001 -27,89.0001 -31,352.0004 l -4,273.0004 h 46.0001 c 34,0 46,3 46,15 0,12 -33,15 -235.0003,15 -203.0002,0 -235.0003,-3 -235.0003,-15 m -1100.0013,0 c 0,-10 14,-15 47.0001,-17 l 48,-3 v -505.0007 -505.0006 l -48,-4 c -33.0001,-2 -47.0001,-7 -47.0001,-17 0,-22 537.0007,-21 639.0008,0 162.0002,34.0001 259.0003,112.0001 294.0003,237.0003 48.0001,168.0002 -14,317.0004 -165.0002,392.0005 -75,37 -126.0001,47 -263.0003,55 l -120.0001,7 v 170.0002 170.0003 l 44,5 c 24.0001,2 45.0001,10 47.0001,17 3,10 -49.0001,13 -236.0003,13 -203.0002,0 -240.0003,-3 -240.0003,-15 m 384.0005,-408.0005 c -2,-7 -4,-150.0002 -2,-318.0004 l 3,-304.0004 59.0001,3 c 151.0001,8 216.0002,102.0002 216.0002,314.0004 0,168.0002 -32,247.0003 -115.0001,286.0004 -55.0001,26 -153.0002,37 -161.0002,19 m 4498.0054,433.0005 c -143.0002,-24 -269.0003,-99.0001 -322.0004,-193.0002 -82.0001,-144.0002 -81.0001,-388.0005 4,-532.0007 75.0001,-129.0001 259.0003,-207.0002 439.0005,-184.0002 198.0003,24 328.0004,164.0002 356.0005,386.0005 7,52 10,100.0001 7,108.0001 -5,12 -50.0001,15 -291.0004,15 -156.0002,0 -286.0003,3 -289.0003,7 -8,14 14,143.0002 33,185.0003 58.0001,138.0001 195.0003,190.0002 353.0004,136.0001 63.0001,-22 130.0002,-59.0001 142.0002,-78.0001 8,-13 26,-14 26,-2 0,13 -52,66.0001 -84.0001,86.0001 -95.0001,58.0001 -253.0003,86.0001 -374.0004,66.0001 m -98.0001,-440.0005 c -10,-18 7,-182.0002 27,-270.0003 29,-128.0002 62.0001,-170.0003 131.0002,-170.0003 69,0 107.0001,55.0001 138.0001,202.0003 10,51.0001 19.0001,127.0001 19.0001,170.0002 l 1,78.0001 h -155.0002 c -92.0001,0 -158.0002,-5 -161.0002,-10" />
      </g>
    </g>
  </g>
</svg>
